<?xml version="1.0" encoding="UTF-8" standalone="no"?><svg version="1.1" viewBox="0 0 24 24" xmlns="http://www.w3.org/2000/svg" xmlns:xlink="http://www.w3.org/1999/xlink"><!--Generated by IJSVG (https://github.com/curthard89/IJSVG)--><g fill="#000000"><path d="M14.361,11.9999c0.082,-0.6569 0.139,-1.3209 0.139,-2c0,-0.679 -0.057,-1.343 -0.139,-1.99995h3.376c0.166,0.64005 0.263,1.30795 0.263,1.99995c0,0.6921 -0.097,1.36 -0.263,2m-5.144,5.561c0.6,-1.113 1.056,-2.311 1.379,-3.561h2.949c-0.959,1.654 -2.491,2.93 -4.328,3.561Zm-0.254,-5.561h-4.679c-0.095,-0.655 -0.16001,-1.3189 -0.16001,-2c0,-0.681 0.06501,-1.3449 0.16001,-1.99995h4.679c0.095,0.65505 0.161,1.31895 0.161,1.99995c0,0.6811 -0.066,1.345 -0.161,2Zm-2.341,5.964c-0.832,-1.2 -1.482,-2.5329 -1.909,-3.964h3.821c-0.428,1.4311 -1.078,2.764 -1.912,3.964Zm-3.972,-11.964h-2.94901c0.95801,-1.65601 2.48999,-2.93402 4.328,-3.56299c-0.6,1.11297 -1.056,2.31097 -1.37899,3.56299Zm-2.94901,7.99995h2.94901c0.32299,1.251 0.77899,2.4501 1.37899,3.563c-1.83801,-0.6289 -3.36999,-1.9069 -4.328,-3.563Zm-0.81601,-2c-0.16498,-0.64 -0.26099,-1.3079 -0.26099,-2c0,-0.692 0.09601,-1.3599 0.26099,-1.99995h3.37702c-0.08201,0.65695 -0.13801,1.32095 -0.13801,1.99995c0,0.6791 0.056,1.3431 0.13801,2m4.36,-9.96394c0.834,1.20001 1.484,2.53296 1.912,3.96399h-3.821c0.427,-1.43103 1.077,-2.76398 1.909,-3.96399Zm6.923,3.96399h-2.949c-0.323,-1.25 -0.779,-2.448 -1.379,-3.56098c1.837,0.63098 3.369,1.90699 4.328,3.56098Zm-6.927,-6c-5.52602,0 -9.99401,4.47699 -9.99401,9.99995c0,5.5231 4.46799,10 9.99401,10c5.527,0 10.006,-4.4769 10.006,-10c0,-5.52296 -4.479,-9.99995 -10.006,-9.99995Z" transform="translate(1.99969, 1.99805)"></path></g></svg>